<svg xmlns="http://www.w3.org/2000/svg" data-v-423bf9ae="" class="iconLeft" viewBox="0.5 0.5 453.52 90"><!----><!----><!----><g data-v-423bf9ae="" id="d61dbb39-4dc4-4ce7-a608-fe7049541d68" fill="#fefdfa" transform="matrix(5.272407679843658,0,0,5.272407679843658,104.83310372896571,2.873460918837523)"><path d="M5.46 3.75Q6.79 3.75 7.77 4.19Q8.75 4.63 9.28 5.45Q9.81 6.27 9.81 7.38L9.81 7.38Q9.81 8.48 9.28 9.30Q8.75 10.11 7.77 10.55Q6.79 10.99 5.46 10.99L5.46 10.99L3.75 10.99L3.75 13.55L0.98 13.55L0.98 3.75L5.46 3.75ZM5.29 8.81Q6.15 8.81 6.58 8.43Q7.01 8.06 7.01 7.38L7.01 7.38Q7.01 6.69 6.58 6.31Q6.15 5.94 5.29 5.94L5.29 5.94L3.75 5.94L3.75 8.81L5.29 8.81ZM11.10 13.55L11.10 5.96L13.76 5.96L13.76 13.55L11.10 13.55ZM12.43 5.12Q11.70 5.12 11.26 4.72Q10.81 4.31 10.81 3.71L10.81 3.71Q10.81 3.11 11.26 2.70Q11.70 2.30 12.43 2.30L12.43 2.30Q13.16 2.30 13.61 2.68Q14.06 3.07 14.06 3.67L14.06 3.67Q14.06 4.30 13.61 4.71Q13.16 5.12 12.43 5.12L12.43 5.12ZM23.34 13.55L20.30 13.55L18.94 11.56L17.49 13.55L14.60 13.55L17.49 9.76L14.69 5.96L17.68 5.96L19.03 7.88L20.43 5.96L23.24 5.96L20.44 9.66L23.34 13.55ZM31.68 9.77Q31.68 9.80 31.64 10.43L31.64 10.43L26.12 10.43Q26.29 11.02 26.77 11.33Q27.26 11.65 27.99 11.65L27.99 11.65Q28.53 11.65 28.93 11.49Q29.33 11.34 29.74 10.99L29.74 10.99L31.14 12.45Q30.03 13.68 27.90 13.68L27.90 13.68Q26.57 13.68 25.56 13.17Q24.56 12.67 24.00 11.77Q23.45 10.88 23.45 9.74L23.45 9.74Q23.45 8.62 23.99 7.73Q24.53 6.85 25.48 6.34Q26.43 5.84 27.62 5.84L27.62 5.84Q28.76 5.84 29.68 6.31Q30.60 6.78 31.14 7.66Q31.68 8.55 31.68 9.77L31.68 9.77ZM27.64 7.73Q27.02 7.73 26.61 8.08Q26.19 8.43 26.08 9.03L26.08 9.03L29.19 9.03Q29.08 8.43 28.66 8.08Q28.25 7.73 27.64 7.73L27.64 7.73ZM32.91 13.55L32.91 3.16L35.57 3.16L35.57 13.55L32.91 13.55ZM44.95 8.44Q45.79 8.74 46.27 9.36Q46.75 9.98 46.75 10.86L46.75 10.86Q46.75 12.15 45.71 12.85Q44.67 13.55 42.71 13.55L42.71 13.55L37.42 13.55L37.42 3.75L42.43 3.75Q44.31 3.75 45.29 4.45Q46.27 5.14 46.27 6.31L46.27 6.31Q46.27 7.01 45.93 7.57Q45.58 8.12 44.95 8.44L44.95 8.44ZM42.07 5.75L40.17 5.75L40.17 7.64L42.07 7.64Q43.47 7.64 43.47 6.69L43.47 6.69Q43.47 5.75 42.07 5.75L42.07 5.75ZM42.49 11.55Q43.95 11.55 43.95 10.56L43.95 10.56Q43.95 9.56 42.49 9.56L42.49 9.56L40.17 9.56L40.17 11.55L42.49 11.55ZM48.06 13.55L48.06 5.96L50.72 5.96L50.72 13.55L48.06 13.55ZM49.39 5.12Q48.66 5.12 48.22 4.72Q47.77 4.31 47.77 3.71L47.77 3.71Q47.77 3.11 48.22 2.70Q48.66 2.30 49.39 2.30L49.39 2.30Q50.12 2.30 50.57 2.68Q51.02 3.07 51.02 3.67L51.02 3.67Q51.02 4.30 50.57 4.71Q50.12 5.12 49.39 5.12L49.39 5.12ZM57.02 11.38L57.68 13.24Q57.34 13.45 56.86 13.57Q56.38 13.68 55.83 13.68L55.83 13.68Q54.35 13.68 53.55 12.95Q52.75 12.22 52.75 10.78L52.75 10.78L52.75 8.23L51.65 8.23L51.65 6.24L52.75 6.24L52.75 4.27L55.41 4.27L55.41 6.24L57.15 6.24L57.15 8.23L55.41 8.23L55.41 10.75Q55.41 11.16 55.63 11.39Q55.85 11.62 56.21 11.62L56.21 11.62Q56.67 11.62 57.02 11.38L57.02 11.38ZM66.23 9.77Q66.23 9.80 66.19 10.43L66.19 10.43L60.68 10.43Q60.84 11.02 61.33 11.33Q61.81 11.65 62.54 11.65L62.54 11.65Q63.08 11.65 63.48 11.49Q63.88 11.34 64.29 10.99L64.29 10.99L65.69 12.45Q64.58 13.68 62.45 13.68L62.45 13.68Q61.12 13.68 60.12 13.17Q59.11 12.67 58.55 11.77Q58.00 10.88 58.00 9.74L58.00 9.74Q58.00 8.62 58.54 7.73Q59.08 6.85 60.03 6.34Q60.98 5.84 62.17 5.84L62.17 5.84Q63.31 5.84 64.23 6.31Q65.16 6.78 65.70 7.66Q66.23 8.55 66.23 9.77L66.23 9.77ZM62.19 7.73Q61.57 7.73 61.16 8.08Q60.75 8.43 60.63 9.03L60.63 9.03L63.74 9.03Q63.63 8.43 63.22 8.08Q62.80 7.73 62.19 7.73L62.19 7.73Z"/></g><!----><g data-v-423bf9ae="" id="65154cef-f778-4dbb-9c3f-565b6a86d738" transform="matrix(1.25,0,0,1.25,-17.625028610229492,-17.625)" stroke="none" fill="#fefdfa"><path d="M50.5 14.5c-19.883 0-36 16.117-36 36s16.117 36 36 36c.262 0 .521-.014.78-.02a13.525 13.525 0 018.801-8.398c1.679-5.545 6.822-9.582 12.918-9.582 2.701 0 5.213.803 7.323 2.17A35.825 35.825 0 0086.5 50.5c0-19.883-16.117-36-36-36zm.001 49.5c-7.459 0-13.5-6.045-13.5-13.5 0-7.457 6.041-13.5 13.5-13.5 7.453 0 13.5 6.044 13.5 13.5 0 7.455-6.047 13.5-13.5 13.5z"/></g><!----></svg>